<?xml version="1.0" encoding="iso-8859-1"?>
<!-- Generator: Adobe Illustrator 19.0.0, SVG Export Plug-In . SVG Version: 6.00 Build 0)  -->
<svg version="1.1" id="Layer_1" xmlns="http://www.w3.org/2000/svg" xmlns:xlink="http://www.w3.org/1999/xlink" x="0px" y="0px"
	 viewBox="0 0 512 512" style="enable-background:new 0 0 512 512;" xml:space="preserve">
<g>
	<path style="fill:#E0B394;" d="M26.205,235.215C11.614,234.568,0,222.531,0,207.786c0-15.156,12.285-27.452,27.452-27.452
		c1.365,0,2.707,0.094,4.025,0.294"/>
	<path style="fill:#E0B394;" d="M228.486,235.215c14.591-0.647,26.217-12.685,26.217-27.429c0-15.156-12.296-27.452-27.464-27.452
		c-1.365,0-2.718,0.106-4.025,0.294"/>
</g>
<path style="fill:#F4AAB6;" d="M181.859,314.992c29.025,5.652,50.937,31.227,50.937,61.907v83.762H21.907v-83.762
	c0-30.681,21.912-56.255,50.937-61.907L181.859,314.992L181.859,314.992z"/>
<path style="fill:#E28B9C;" d="M99.668,314.992H72.844c-29.025,5.652-50.937,31.227-50.937,61.907v83.762h26.823v-83.762
	C48.731,346.217,70.643,320.642,99.668,314.992z"/>
<path style="fill:#F7CBA4;" d="M186.168,316.365c0,3.006-0.222,5.966-0.656,8.851c-4.273,28.276-28.683,49.956-58.151,49.956
	s-53.869-21.671-58.143-49.938c-0.435-2.895-0.666-5.855-0.666-8.87c0-0.129,0-0.249,0.009-0.379h117.598
	C186.168,316.115,186.168,316.236,186.168,316.365z"/>
<g>
	<path style="fill:#E28B9C;" d="M69.703,460.661H55.83v-63.359c0-3.832,3.106-6.937,6.937-6.937l0,0
		c3.832,0,6.937,3.106,6.937,6.937C69.703,397.302,69.703,460.661,69.703,460.661z"/>
	<path style="fill:#E28B9C;" d="M198.874,460.661H185v-63.359c0-3.832,3.106-6.937,6.937-6.937l0,0c3.832,0,6.937,3.106,6.937,6.937
		v63.359H198.874z"/>
</g>
<path style="fill:#E0B394;" d="M186.168,316.365c0,3.006-0.222,5.966-0.656,8.851l-24.28,17.639
	c-20.201,14.67-47.561,14.67-67.762,0l-24.252-17.62c-0.435-2.895-0.666-5.855-0.666-8.87c0-0.129,0-0.249,0.009-0.379h117.598
	C186.168,316.115,186.168,316.236,186.168,316.365z"/>
<path style="fill:#F7CBA4;" d="M200.68,299.392l-39.449,28.664c-20.201,14.67-47.561,14.67-67.762,0L54.02,299.392
	c-22.81-16.576-34.981-44.11-31.883-72.137l5.078-45.924c0.879-7.973,2.682-15.65,5.281-22.92v-0.009
	c14.051-39.245,51.53-66.745,94.854-66.745c25.676,0,49.3,9.657,67.207,25.695s30.107,38.459,32.928,63.978l1.647,14.901
	l3.431,31.022C235.662,255.282,223.49,282.817,200.68,299.392z"/>
<g>
	<path style="fill:#E0B394;" d="M127.351,91.662L127.351,91.662c-51.355,0-94.49,38.63-100.134,89.674L22.14,227.26
		c-3.098,28.025,9.072,55.559,31.883,72.132l39.451,28.663c10.092,7.333,21.97,11.001,33.849,11.007
		c-9.07-0.008-18.137-3.676-25.843-11.007l-30.127-28.663c-17.419-16.573-26.713-44.107-24.347-72.132l3.877-45.924
		C55.193,130.292,88.134,91.662,127.351,91.662L127.351,91.662"/>
	<path style="fill:#E0B394;" d="M229.131,196.233c-49.152,3.098-76.642-35.527-77.113-36.332
		c-25.898,20.996-65.736,37.119-123.138,21.422c1.6-7.446,2.701-15.188,3.617-22.911v-0.009
		c14.05-39.245,51.529-66.745,94.853-66.745c25.676,0,49.3,9.657,67.207,25.695s30.107,38.459,32.928,63.978L229.131,196.233z"/>
</g>
<path style="fill:#FEC95B;" d="M185.687,110.268c-1.396,2.377-3.043,5.032-4.958,7.862c-3.219,4.773-7.196,10.072-11.978,15.484
	c-4.754,5.392-10.313,10.905-16.732,16.112c-22.356,18.12-55.09,32.614-100.551,26.14c-7.206-1.018-14.735-2.571-22.587-4.717
	c8.982-41.807,43.564-73.386,85.826-78.686c3.552-0.453,7.159-0.713,10.813-0.777c0.278-0.009,0.555-0.019,0.842-0.009
	c0.324-0.009,0.656-0.009,0.989-0.009c14.096,0,27.572,2.914,39.829,8.185C173.736,102.674,179.934,106.18,185.687,110.268z"/>
<g>
	<path style="fill:#EAAE44;" d="M227.972,185.778c-51.325,5.198-75.476-35.231-75.957-36.054
		c16.677-13.532,27.572-29.08,33.669-39.458c3.089,2.202,6.049,4.57,8.87,7.094c17.916,16.038,30.107,38.459,32.928,63.978
		L227.972,185.778z"/>
	<path style="fill:#EAAE44;" d="M180.729,118.131c-3.219,4.773-7.196,10.072-11.978,15.484l-7.603-5.54l-5.744-0.61l-33.945-3.617
		c-12.219-1.304-18.453-15.345-11.211-25.269l4.458-6.114c4.144-0.527,8.362-0.795,12.643-0.795c14.096,0,27.572,2.914,39.829,8.185
		l3.163,7.132l2.341,5.281L180.729,118.131z"/>
</g>
<path style="fill:#D2B4EF;" d="M251.433,154.341l-18.758,25.733c-7.233,9.925-22.504,8.297-27.49-2.932l-13.846-31.218l-2.341-5.281
	l-27.388-19.969l-5.744-0.61l-33.945-3.617c-12.219-1.304-18.453-15.345-11.211-25.269l18.748-25.741
	c7.242-9.925,22.513-8.297,27.498,2.932l13.847,31.217l2.341,5.281l27.378,19.969l5.753,0.61l33.945,3.626
	C252.449,130.367,258.675,144.417,251.433,154.341z"/>
<path style="fill:#B99ED8;" d="M206.276,125.447c-0.972,9.176-6.835,16.89-14.938,20.478l-2.341-5.281l-27.388-19.969l-5.744-0.61
	c0.971-9.176,6.835-16.89,14.938-20.478l2.341,5.281l27.378,19.969L206.276,125.447z"/>
<circle style="fill:#D2B4EF;" cx="181.066" cy="122.762" r="19.569"/>
<path style="fill:#B99ED8;" d="M170.723,122.756c0-9.217,6.38-16.924,14.958-19c-1.481-0.358-3.02-0.569-4.61-0.569
	c-10.807,0-19.569,8.761-19.569,19.569c0,10.807,8.761,19.569,19.569,19.569c1.592,0,3.13-0.211,4.61-0.569
	C177.103,139.681,170.723,131.973,170.723,122.756z"/>
<path style="fill:#FFFFFF;" d="M95.899,277.81c1.806,0.248,3.385,0.589,4.867,0.947c1.556,0.263,3.02,0.527,4.393,0.823
	c1.407,0.244,2.807,0.393,4.085,0.657c1.329,0.172,2.635,0.291,3.859,0.507c5.021,0.574,9.621,0.847,14.245,0.845
	c4.624-0.019,9.22-0.291,14.235-0.869c1.222-0.218,2.528-0.333,3.857-0.505c1.277-0.266,2.678-0.409,4.084-0.654
	c1.374-0.292,2.838-0.555,4.396-0.815c1.484-0.355,3.066-0.693,4.876-0.936c-0.349,1.707-0.925,3.322-1.6,4.918
	c-0.739,1.523-1.654,2.942-2.614,4.387c-1.035,1.334-2.185,2.601-3.399,3.836c-1.252,1.167-2.627,2.195-4.033,3.227
	c-5.74,3.883-12.781,5.919-19.804,5.906c-7.02-0.01-14.059-2.044-19.793-5.932c-1.403-1.035-2.78-2.058-4.03-3.225
	c-1.213-1.238-2.365-2.499-3.399-3.833c-0.961-1.442-1.877-2.858-2.617-4.378C96.831,281.124,96.252,279.513,95.899,277.81z"/>
<path style="fill:#E0B394;" d="M133.209,254.134h-11.716c-3.832,0-6.937-3.106-6.937-6.937s3.106-6.937,6.937-6.937h11.716
	c3.832,0,6.937,3.106,6.937,6.937S137.041,254.134,133.209,254.134z"/>
<path style="fill:#EAAE44;" d="M114.707,92.463c3.552-0.453,7.159-0.713,10.813-0.777c-36.998,1.137-68.04,36.655-74.051,84.18
	c-7.206-1.018-14.735-2.571-22.587-4.717C37.862,129.34,72.446,97.763,114.707,92.463z"/>
<g>
	<path style="fill:#C99F83;" d="M184.384,230.419c-1.183,0-2.367-0.451-3.27-1.354c-3.363-3.363-7.834-5.215-12.591-5.215
		s-9.226,1.852-12.591,5.215c-1.804,1.806-4.735,1.806-6.54,0c-1.807-1.806-1.807-4.734,0-6.541c5.11-5.11,11.904-7.924,19.13-7.924
		c7.227,0,14.021,2.814,19.13,7.924c1.807,1.806,1.807,4.734,0,6.541C186.753,229.967,185.568,230.419,184.384,230.419z"/>
	<path style="fill:#C99F83;" d="M102.034,230.419c-1.183,0-2.367-0.451-3.27-1.354c-6.942-6.942-18.238-6.942-25.18,0
		c-1.807,1.806-4.734,1.806-6.541,0c-1.806-1.806-1.806-4.734,0-6.541c10.549-10.549,27.712-10.549,38.261,0
		c1.806,1.806,1.806,4.734,0,6.541C104.401,229.967,103.217,230.419,102.034,230.419z"/>
</g>
<g>
	<path style="fill:#E0B394;" d="M291.548,220.186c-11.469-0.508-20.598-9.971-20.598-21.561c0-11.913,9.657-21.579,21.579-21.579
		c1.073,0,2.128,0.074,3.163,0.232"/>
	<path style="fill:#E0B394;" d="M481.922,220.186c11.469-0.508,20.608-9.971,20.608-21.561c0-11.913-9.665-21.579-21.589-21.579
		c-1.073,0-2.136,0.083-3.163,0.232"/>
</g>
<path style="fill:#FC8A5E;" d="M492.186,363.022v97.637H281.298v-97.637c0-27.452,17.546-50.817,42.03-59.465
	c1.517-0.546,3.062-1.027,4.625-1.443v-0.009c1.406-0.379,2.839-0.713,4.283-0.989H441.25c1.453,0.287,2.885,0.61,4.301,0.999
	c1.563,0.426,3.108,0.907,4.625,1.443C474.649,312.215,492.186,335.579,492.186,363.022z"/>
<path style="fill:#EA7653;" d="M359.059,301.113h-26.823c-29.025,5.652-50.937,31.227-50.937,61.907v97.636h26.823V363.02
	C308.123,332.34,330.034,306.765,359.059,301.113z"/>
<path style="fill:#F7CBA4;" d="M445.56,302.494c0,1.647-0.065,3.284-0.203,4.893c-2.488,30.191-27.776,53.915-58.605,53.915
	s-56.116-23.725-58.596-53.906c-0.148-1.619-0.213-3.246-0.213-4.903c0-0.129,0-0.249,0.009-0.379v-0.009
	c1.406-0.379,2.839-0.713,4.283-0.989h109.014c1.453,0.287,2.885,0.61,4.301,0.999C445.56,302.244,445.56,302.365,445.56,302.494z"
	/>
<path style="fill:#E0B394;" d="M445.56,302.494c0,1.647-0.065,3.284-0.203,4.893l-27.397,19.896
	c-18.619,13.523-43.824,13.523-62.434,0l-27.369-19.887c-0.148-1.619-0.213-3.246-0.213-4.903c0-0.129,0-0.249,0.009-0.379v-0.009
	c1.406-0.379,2.839-0.713,4.283-0.989h109.014c1.453,0.287,2.885,0.61,4.301,0.999C445.56,302.244,445.56,302.365,445.56,302.494z"
	/>
<path style="fill:#F7CBA4;" d="M455.928,290.451l-37.969,27.582c-18.619,13.523-43.824,13.523-62.434,0l-37.969-27.582
	c-20.062-14.577-30.921-38.69-28.535-63.377l5.753-59.493l0.833-8.648c4.532-46.941,43.981-82.755,91.135-82.755
	c23.577,0,45.221,8.954,61.546,23.771c12.015,10.905,21.135,24.992,26.019,41.021c1.757,5.753,2.969,11.766,3.57,17.962
	l6.576,68.141C486.84,251.76,475.99,275.874,455.928,290.451z"/>
<g>
	<path style="fill:#E0B394;" d="M312.648,240.509c-0.639,10.794,2.877,21.412,9.832,29.691l39.683,48.763
		c2.071,2.47,4.421,4.541,6.965,6.197c-4.773-1.664-9.361-4.051-13.606-7.131l-37.969-27.582
		c-20.062-14.577-30.912-38.682-28.525-63.369l6.576-68.15c4.496-46.479,43.214-82.052,89.766-82.727
		c-28.673,0.694-61.142,27.721-62.835,56.505L312.648,240.509z"/>
	<path style="fill:#E0B394;" d="M474.307,140.97c-15.437-6.336-34.639-9.064-55.728-0.527c-26.231,10.61-44.397,9.786-57.966,3.848
		c-0.306-0.148-0.62-0.287-0.934-0.435c-0.296-0.129-0.582-0.268-0.869-0.407c-2.756-1.332-5.319-2.885-7.714-4.587
		c-0.028,0.084-0.065,0.167-0.101,0.249c-10.359,26.592-55.534,29.635-55.534,29.635s-0.259-0.407-0.685-1.166l0.833-8.648
		c4.532-46.941,43.981-82.755,91.135-82.755c23.577,0,45.221,8.954,61.546,23.771C460.303,110.854,469.423,124.94,474.307,140.97z"
		/>
</g>
<path style="fill:#666666;" d="M512,159.559c0,0-40.837-48.717-93.419-27.443c-26.231,10.61-44.397,9.786-57.966,3.848
	c-0.306-0.148-0.62-0.287-0.934-0.435c-0.296-0.129-0.582-0.268-0.869-0.407c-2.756-1.332-5.319-2.885-7.714-4.587
	c-0.028,0.083-0.065,0.167-0.102,0.249c-10.359,26.592-55.534,29.635-55.534,29.635s-20.247-32.309-9.148-57.282
	c8.796-19.803,32.133-40.763,71.85-48.596c10.378-2.054,21.875-3.201,34.519-3.201C453.728,51.339,512,92.037,512,159.559z"/>
<path style="fill:#4D4D4D;" d="M358.163,54.54c0,0-47.366,49.651-7.168,76.244c-10.359,26.592-55.534,29.635-55.534,29.635
	s-20.247-32.309-9.148-57.282C295.108,83.334,318.445,62.375,358.163,54.54z"/>
<g>
	<rect x="451.318" y="415.339" style="fill:#F7CBA4;" width="40.865" height="45.322"/>
	<rect x="281.294" y="415.339" style="fill:#F7CBA4;" width="40.854" height="45.322"/>
</g>
<rect x="281.294" y="415.339" style="fill:#E0B394;" width="26.823" height="45.322"/>
<path style="fill:#4D4D4D;" d="M345.564,229.248c-3.832,0-6.937-3.106-6.937-6.937v-11.096c0-3.832,3.106-6.937,6.937-6.937
	s6.937,3.106,6.937,6.937v11.096C352.501,226.142,349.395,229.248,345.564,229.248z"/>
<g>
	<path style="fill:#666666;" d="M443.775,189.942c-1.421,0-2.841-0.542-3.924-1.626c-3.188-3.188-7.426-4.944-11.935-4.944
		c-4.508,0-8.748,1.756-11.935,4.944c-2.167,2.167-5.683,2.167-7.849,0c-2.167-2.167-2.167-5.681-0.001-7.849
		c5.285-5.284,12.31-8.195,19.784-8.195c7.475,0,14.5,2.911,19.785,8.195c2.167,2.167,2.167,5.681-0.001,7.849
		C446.616,189.401,445.196,189.942,443.775,189.942z"/>
	<path style="fill:#666666;" d="M361.424,189.942c-1.421,0-2.841-0.542-3.924-1.626c-6.58-6.581-17.29-6.581-23.872,0
		c-2.167,2.167-5.681,2.167-7.849,0c-2.167-2.167-2.167-5.681,0-7.849c10.91-10.91,28.66-10.908,39.569,0
		c2.167,2.167,2.167,5.681,0,7.849C364.264,189.401,362.845,189.942,361.424,189.942z"/>
</g>
<g>
	<path style="fill:#4D4D4D;" d="M427.916,229.248c-3.832,0-6.937-3.106-6.937-6.937v-11.096c0-3.832,3.105-6.937,6.937-6.937
		s6.937,3.106,6.937,6.937v11.096C434.853,226.142,431.747,229.248,427.916,229.248z"/>
	<path style="fill:#4D4D4D;" d="M361.534,272.032c5.348,1.217,9.56,2.178,13.646,2.697c4.041,0.545,7.791,0.81,11.559,0.807
		c3.768-0.014,7.514-0.278,11.552-0.826c4.083-0.52,8.292-1.474,13.653-2.678c-1.251,5.384-4.935,9.728-9.477,12.771
		c-4.581,3.027-10.162,4.613-15.727,4.605c-5.565-0.008-11.142-1.593-15.721-4.623C366.48,281.739,362.797,277.402,361.534,272.032z
		"/>
</g>
<path style="fill:#E0B394;" d="M379.406,250.984l12.041-3.209c3.709-0.988,5.914-4.796,4.926-8.505l-8.205-30.797"/>
<g>
	<path style="fill:#EA7653;" d="M445.55,302.115c-1.415-0.388-2.849-0.713-4.301-0.999h-0.324v0.999c0,0.111,0,0.158,0.009,0.278
		v0.102c0,29.875-24.307,54.183-54.183,54.183c-29.885,0-54.183-24.308-54.183-54.183v-0.102c0-0.101,0.009-0.204,0.009-0.306
		v-0.971h-0.342c-1.443,0.278-2.877,0.61-4.283,0.989v0.009c-1.563,0.416-3.108,0.897-4.625,1.443
		c0.574,34.483,28.793,62.369,63.424,62.369c34.62,0,62.85-27.887,63.424-62.369C448.658,303.021,447.114,302.54,445.55,302.115z"/>
	<polygon style="fill:#EA7653;" points="322.155,415.333 322.155,369.554 312.747,415.333 	"/>
	<polygon style="fill:#EA7653;" points="451.323,415.333 451.323,369.554 460.73,415.333 	"/>
</g>
<g>
</g>
<g>
</g>
<g>
</g>
<g>
</g>
<g>
</g>
<g>
</g>
<g>
</g>
<g>
</g>
<g>
</g>
<g>
</g>
<g>
</g>
<g>
</g>
<g>
</g>
<g>
</g>
<g>
</g>
</svg>
