<?xml version="1.0" encoding="iso-8859-1"?>
<!-- Generator: Adobe Illustrator 19.0.0, SVG Export Plug-In . SVG Version: 6.00 Build 0)  -->
<svg version="1.1" id="Capa_1" xmlns="http://www.w3.org/2000/svg" xmlns:xlink="http://www.w3.org/1999/xlink" x="0px" y="0px"
	 viewBox="0 0 58 58" style="enable-background:new 0 0 58 58;" xml:space="preserve">
<path style="fill:#38454F;" d="M45.592,58H12.408C11.078,58,10,56.922,10,55.592V2.408C10,1.078,11.078,0,12.408,0h33.184
	C46.922,0,48,1.078,48,2.408v53.184C48,56.922,46.922,58,45.592,58z"/>
<rect x="15" y="5" style="fill:#38454F;stroke:#283238;stroke-width:2;stroke-linecap:round;stroke-miterlimit:10;" width="28" height="8"/>
<rect x="15" y="13" style="fill:#38454F;stroke:#283238;stroke-width:2;stroke-linecap:round;stroke-miterlimit:10;" width="28" height="8"/>
<rect x="15" y="21" style="fill:#38454F;stroke:#283238;stroke-width:2;stroke-linecap:round;stroke-miterlimit:10;" width="28" height="8"/>
<g>
	<path style="fill:#546A79;" d="M19,48h2c0.553,0,1-0.447,1-1s-0.447-1-1-1h-2c-0.553,0-1,0.447-1,1S18.447,48,19,48z"/>
	<path style="fill:#546A79;" d="M19,50c0-0.553-0.447-1-1-1h-2c-0.553,0-1,0.447-1,1s0.447,1,1,1h2C18.553,51,19,50.553,19,50z"/>
	<path style="fill:#546A79;" d="M25,50c0-0.553-0.447-1-1-1h-2c-0.553,0-1,0.447-1,1s0.447,1,1,1h2C24.553,51,25,50.553,25,50z"/>
	<path style="fill:#546A79;" d="M25,48h2c0.553,0,1-0.447,1-1s-0.447-1-1-1h-2c-0.553,0-1,0.447-1,1S24.447,48,25,48z"/>
	<path style="fill:#546A79;" d="M31,48h2c0.553,0,1-0.447,1-1s-0.447-1-1-1h-2c-0.553,0-1,0.447-1,1S30.447,48,31,48z"/>
	<path style="fill:#546A79;" d="M31,50c0-0.553-0.447-1-1-1h-2c-0.553,0-1,0.447-1,1s0.447,1,1,1h2C30.553,51,31,50.553,31,50z"/>
	<path style="fill:#546A79;" d="M37,50c0-0.553-0.447-1-1-1h-2c-0.553,0-1,0.447-1,1s0.447,1,1,1h2C36.553,51,37,50.553,37,50z"/>
	<path style="fill:#546A79;" d="M37,48h2c0.553,0,1-0.447,1-1s-0.447-1-1-1h-2c-0.553,0-1,0.447-1,1S36.447,48,37,48z"/>
	<path style="fill:#546A79;" d="M42,49h-2c-0.553,0-1,0.447-1,1s0.447,1,1,1h2c0.553,0,1-0.447,1-1S42.553,49,42,49z"/>
	<path style="fill:#546A79;" d="M21,52h-2c-0.553,0-1,0.447-1,1s0.447,1,1,1h2c0.553,0,1-0.447,1-1S21.553,52,21,52z"/>
	<path style="fill:#546A79;" d="M27,52h-2c-0.553,0-1,0.447-1,1s0.447,1,1,1h2c0.553,0,1-0.447,1-1S27.553,52,27,52z"/>
	<path style="fill:#546A79;" d="M33,52h-2c-0.553,0-1,0.447-1,1s0.447,1,1,1h2c0.553,0,1-0.447,1-1S33.553,52,33,52z"/>
	<path style="fill:#546A79;" d="M39,52h-2c-0.553,0-1,0.447-1,1s0.447,1,1,1h2c0.553,0,1-0.447,1-1S39.553,52,39,52z"/>
</g>
<circle style="fill:#283238;" cx="40" cy="36" r="3"/>
<circle style="fill:#25AE88;" cx="16" cy="36" r="2"/>
<circle style="fill:#21C6F7;" cx="21" cy="36" r="2"/>
<g>
</g>
<g>
</g>
<g>
</g>
<g>
</g>
<g>
</g>
<g>
</g>
<g>
</g>
<g>
</g>
<g>
</g>
<g>
</g>
<g>
</g>
<g>
</g>
<g>
</g>
<g>
</g>
<g>
</g>
</svg>
