<?xml version="1.0" encoding="iso-8859-1"?>
<!-- Generator: Adobe Illustrator 19.0.0, SVG Export Plug-In . SVG Version: 6.00 Build 0)  -->
<svg version="1.1" id="Layer_1" xmlns="http://www.w3.org/2000/svg" xmlns:xlink="http://www.w3.org/1999/xlink" x="0px" y="0px"
	 viewBox="0 0 512 512" style="enable-background:new 0 0 512 512;" xml:space="preserve">
<path style="fill:#0096DC;" d="M246.583,267.358l-45.441-11.36h-128l-45.441,11.36C11.421,271.428,0,286.056,0,302.837v172.59
	c0,5.049,4.093,9.143,9.143,9.143h256c5.049,0,9.143-4.093,9.143-9.143V302.838C274.286,286.056,262.864,271.428,246.583,267.358z"
	/>
<path style="fill:#B48764;" d="M246.583,267.357l-28.774-7.193c-5.593,13.661-26.958,59.135-75.419,92.87
	c-3.146,2.19-7.349,2.19-10.495,0c-48.461-33.735-69.825-79.208-75.419-92.87l-28.775,7.194C11.421,271.428,0,286.056,0,302.837
	v172.589c0,5.049,4.093,9.143,9.143,9.143h265.143V302.838C274.286,286.056,262.864,271.427,246.583,267.357z"/>
<rect x="91.43" y="210.28" style="fill:#D29B6E;" width="91.43" height="54.857"/>
<path style="fill:#F0C087;" d="M219.429,118.855V91.427c0-35.347-28.654-64-64-64h-36.571c-35.346,0-64,28.653-64,64v27.429
	c-10.099,0-18.286,8.186-18.286,18.286c0,10.099,8.187,18.286,18.286,18.286c0,45.445,36.84,82.286,82.286,82.286
	s82.286-36.84,82.286-82.286c10.099,0,18.286-8.187,18.286-18.286C237.714,127.042,229.527,118.855,219.429,118.855z"/>
<path style="fill:#E6AF78;" d="M100.571,155.427v-64c0-33.803,26.225-61.416,59.429-63.769c-1.516-0.108-3.028-0.231-4.571-0.231
	h-36.571c-35.346,0-64,28.653-64,64v27.429c-10.099,0-18.286,8.186-18.286,18.286c0,10.099,8.187,18.286,18.286,18.286
	c0,45.445,36.84,82.286,82.286,82.286c7.94,0,15.593-1.186,22.857-3.285C125.688,224.514,100.571,192.932,100.571,155.427z"/>
<path style="fill:#D29B6E;" d="M137.143,201.141c-9.679,0-18.929-4.563-25.384-12.527c-3.188-3.92-2.58-9.679,1.339-12.857
	c3.929-3.188,9.688-2.589,12.857,1.339c6.036,7.429,16.339,7.429,22.375,0c3.17-3.929,8.92-4.527,12.857-1.339
	c3.92,3.179,4.527,8.938,1.339,12.857C156.071,196.578,146.821,201.141,137.143,201.141z"/>
<g>
	<path style="fill:#64463C;" d="M100.571,155.427c-5.054,0-9.143-4.089-9.143-9.143v-9.143c0-5.054,4.089-9.143,9.143-9.143
		s9.143,4.089,9.143,9.143v9.143C109.714,151.337,105.625,155.427,100.571,155.427z"/>
	<path style="fill:#64463C;" d="M173.714,155.427c-5.054,0-9.143-4.089-9.143-9.143v-9.143c0-5.054,4.089-9.143,9.143-9.143
		s9.143,4.089,9.143,9.143v9.143C182.857,151.337,178.768,155.427,173.714,155.427z"/>
</g>
<g>
	<path style="fill:#D5DCED;" d="M73.143,66.284c0-10.099-8.187-18.286-18.286-18.286s-18.286,8.186-18.286,18.286
		c0,3.725,1.127,7.181,3.04,10.071c-9.64,2.684-16.754,11.433-16.754,21.929c0,12.623,10.233,22.857,22.857,22.857
		s22.857-10.234,22.857-22.857c0-5.969-2.342-11.357-6.088-15.427C68.761,79.96,73.143,73.651,73.143,66.284z"/>
	<path style="fill:#D5DCED;" d="M201.143,66.284c0-10.099,8.187-18.286,18.286-18.286s18.286,8.186,18.286,18.286
		c0,3.725-1.127,7.181-3.04,10.071c9.64,2.684,16.754,11.433,16.754,21.929c0,12.623-10.233,22.857-22.857,22.857
		s-22.857-10.234-22.857-22.857c0-5.969,2.342-11.357,6.088-15.427C205.525,79.96,201.143,73.651,201.143,66.284z"/>
</g>
<g>
	<path style="fill:#0096DC;" d="M41.468,315.752L7.072,281.356C2.634,287.45,0,294.878,0,302.837v172.59
		c0,5.049,4.093,9.143,9.143,9.143h45.714V348.076C54.857,335.952,50.041,324.325,41.468,315.752z"/>
	<path style="fill:#0096DC;" d="M232.818,315.752l34.396-34.396c4.438,6.094,7.072,13.522,7.072,21.481V484.57h-54.857V348.076
		C219.429,335.952,224.245,324.325,232.818,315.752z"/>
</g>
<path style="fill:#007DC3;" d="M137.143,329.141L137.143,329.141c-5.049,0-9.143-4.093-9.143-9.143v-54.857h18.286v54.857
	C146.286,325.048,142.192,329.141,137.143,329.141z"/>
<g>
	<path style="fill:#00AAF0;" d="M90.463,241.801l46.68,23.34l-20.347,27.13c-3.586,4.781-10.72,4.893-14.454,0.226l-29.199-36.499
		l5.054-10.108C80.455,241.374,85.947,239.543,90.463,241.801z"/>
	<path style="fill:#00AAF0;" d="M183.822,241.801l-46.68,23.34l20.347,27.13c3.586,4.781,10.72,4.893,14.454,0.226l29.199-36.499
		l-5.054-10.108C193.831,241.374,188.339,239.543,183.822,241.801z"/>
</g>
<g>
	<path style="fill:#C7CFE2;" d="M448,246.855c15.148,0,27.429,12.28,27.429,27.429c0,0.558-0.131,1.079-0.164,1.629
		c10.713,3.733,18.45,13.814,18.45,25.8c0,15.148-12.28,27.429-27.429,27.429h-45.714v-54.857
		C420.571,259.135,432.852,246.855,448,246.855z"/>
	<path style="fill:#C7CFE2;" d="M320,246.855c-15.148,0-27.429,12.28-27.429,27.429c0,0.558,0.131,1.079,0.164,1.629
		c-10.713,3.733-18.45,13.814-18.45,25.8c0,15.148,12.28,27.429,27.429,27.429h45.714v-54.857
		C347.429,259.135,335.148,246.855,320,246.855z"/>
</g>
<path style="fill:#966D50;" d="M483.263,326.789l-51.198-20.479c-5.206-2.083-9.068-6.386-10.675-11.561l-0.819-20.465h-73.143
	l-0.82,20.465c-1.605,5.176-5.468,9.479-10.675,11.561l-51.198,20.479C267.381,333.731,256,350.541,256,369.234V475.43
	c0,5.05,4.093,9.143,9.143,9.143l237.714-0.004c5.049,0,9.143-4.093,9.143-9.143V369.234
	C512,350.541,500.619,333.731,483.263,326.789z"/>
<path style="fill:#FFDC64;" d="M483.263,326.785l-40.007-16.003C429,327.587,407.761,338.28,384,338.28
	c-23.762,0-45.001-10.694-59.256-27.498l-40.007,16.003C267.381,333.727,256,350.537,256,369.23v106.196
	c0,5.05,4.094,9.143,9.143,9.143l237.714-0.003c5.049,0,9.143-4.093,9.143-9.143V369.23
	C512,350.537,500.619,333.727,483.263,326.785z"/>
<circle style="fill:#D5DCED;" cx="384" cy="164.57" r="100.57"/>
<path style="fill:#C7CFE2;" d="M347.429,164.57c0-44.343,28.734-81.906,68.571-95.283c-10.063-3.379-20.799-5.288-32-5.288
	c-55.544,0-100.571,45.027-100.571,100.571S328.456,265.141,384,265.141c11.201,0,21.938-1.908,32-5.288
	C376.163,246.475,347.429,208.913,347.429,164.57z"/>
<path style="fill:#C39772;" d="M384,301.712L384,301.712c-45.445,0-82.286-36.841-82.286-82.286v-30.435
	c0-3.699,2.339-6.86,5.722-8.354c16.068-7.096,28.418-19.897,34.91-27.71c2.895-3.484,7.94-4.32,11.694-1.783
	c45.813,30.952,112.245,24.286,112.245,59.139v9.143C466.286,264.872,429.445,301.712,384,301.712z"/>
<path style="fill:#B48764;" d="M347.429,219.427v-69.494c-1.921,0.406-3.741,1.382-5.081,2.996
	c-6.493,7.813-18.843,20.614-34.91,27.71c-3.384,1.494-5.723,4.655-5.723,8.354v30.435c0,45.445,36.84,82.286,82.286,82.286
	c7.94,0,15.593-1.186,22.857-3.285C372.545,288.514,347.429,256.932,347.429,219.427z"/>
<path style="fill:#966D50;" d="M384,265.141c-9.679,0-18.929-4.563-25.384-12.527c-3.188-3.92-2.58-9.679,1.339-12.857
	c3.929-3.196,9.679-2.589,12.857,1.339c6.036,7.429,16.339,7.429,22.375,0c3.17-3.929,8.92-4.536,12.857-1.339
	c3.92,3.179,4.527,8.938,1.339,12.857C402.929,260.578,393.679,265.141,384,265.141z"/>
<path style="fill:#707487;" d="M365.705,219.427c-1.75,0-3.509-0.5-5.071-1.545c-4.196-2.804-5.33-8.482-2.518-12.679
	c5.527-8.268,15.196-13.205,25.884-13.205c10.679,0,20.357,4.929,25.884,13.188c2.813,4.196,1.688,9.875-2.509,12.688
	c-4.196,2.804-9.875,1.688-12.688-2.509c-4.196-6.268-17.179-6.268-21.375,0C371.554,217.998,368.661,219.427,365.705,219.427z"/>
<g>
	<path style="fill:#7F8499;" d="M347.429,237.712c-15.125,0-27.429-12.304-27.429-27.429s12.304-27.429,27.429-27.429
		s27.429,12.304,27.429,27.429S362.554,237.712,347.429,237.712z"/>
	<path style="fill:#7F8499;" d="M420.571,237.712c-15.125,0-27.429-12.304-27.429-27.429s12.304-27.429,27.429-27.429
		S448,195.159,448,210.284S435.696,237.712,420.571,237.712z"/>
</g>
<g>
	<path style="fill:#FFFFFF;" d="M420.571,201.141c-5.045,0-9.143,4.098-9.143,9.143s4.098,9.143,9.143,9.143
		s9.143-4.098,9.143-9.143S425.616,201.141,420.571,201.141z"/>
	<path style="fill:#FFFFFF;" d="M347.429,201.141c-5.045,0-9.143,4.098-9.143,9.143s4.098,9.143,9.143,9.143
		s9.143-4.098,9.143-9.143S352.473,201.141,347.429,201.141z"/>
</g>
<g>
	<path style="fill:#FFC850;" d="M293.681,375.964l-30.749-30.749c-4.383,7.078-6.932,15.316-6.932,24.014v106.197
		c0,5.049,4.093,9.143,9.143,9.143l36.571-0.001v-89.21C301.714,388.085,298.824,381.108,293.681,375.964z"/>
	<path style="fill:#FFC850;" d="M474.319,375.964l30.749-30.749c4.383,7.078,6.932,15.316,6.932,24.014v106.197
		c0,5.049-4.093,9.143-9.143,9.143l-36.571-0.001v-89.21C466.286,388.085,469.176,381.108,474.319,375.964z"/>
	<path style="fill:#FFC850;" d="M384,365.712c35.029,0,65.844-17.93,83.852-45.092l-24.595-9.838
		C429,327.587,407.761,338.28,384,338.28c-23.762,0-45.001-10.694-59.256-27.498l-24.595,9.838
		C318.156,347.782,348.971,365.712,384,365.712z"/>
</g>
<g>
</g>
<g>
</g>
<g>
</g>
<g>
</g>
<g>
</g>
<g>
</g>
<g>
</g>
<g>
</g>
<g>
</g>
<g>
</g>
<g>
</g>
<g>
</g>
<g>
</g>
<g>
</g>
<g>
</g>
</svg>
