<?xml version="1.0" encoding="iso-8859-1"?>
<!-- Generator: Adobe Illustrator 19.0.0, SVG Export Plug-In . SVG Version: 6.00 Build 0)  -->
<svg version="1.1" id="Capa_1" xmlns="http://www.w3.org/2000/svg" xmlns:xlink="http://www.w3.org/1999/xlink" x="0px" y="0px"
	 viewBox="0 0 512 512" style="enable-background:new 0 0 512 512;" xml:space="preserve">
<g>
	<path style="fill:#EAE4D6;" d="M504.508,323.065c-0.538,0-1.084-0.059-1.631-0.18L5.879,212.688
		c-4.044-0.896-6.595-4.902-5.699-8.947c0.897-4.044,4.902-6.596,8.947-5.698L506.124,308.24
		C514.832,310.17,513.412,323.065,504.508,323.065z"/>
	<path style="fill:#EAE4D6;" d="M504.5,98.765H7.503c-4.142,0-7.5-3.357-7.5-7.5c0-4.143,3.358-7.5,7.5-7.5H504.5
		c4.142,0,7.5,3.357,7.5,7.5C512,95.408,508.642,98.765,504.5,98.765z"/>
</g>
<path style="fill:#70B5E8;" d="M198.405,84.905v131.172c0,5.684,6.43,8.985,11.049,5.672l40.492-29.042
	c3.62-2.596,8.492-2.596,12.112,0l40.351,28.941c4.677,3.355,11.19,0.012,11.19-5.744V85.094c0-4.325-3.506-7.83-7.83-7.83h-99.721
	C201.826,77.264,198.405,80.685,198.405,84.905z"/>
<path style="fill:#FFB70D;" d="M345.46,84.742v131.335c0,5.684,6.43,8.985,11.049,5.672l40.492-29.042
	c3.62-2.596,8.492-2.596,12.112,0l40.351,28.941c4.677,3.355,11.19,0.012,11.19-5.744V84.463c0-3.976-3.223-7.199-7.199-7.199
	H352.939C348.809,77.264,345.46,80.612,345.46,84.742z"/>
<path style="fill:#F94A46;" d="M159.007,77.264h-0.102h-99.92h-0.102c-4.161,0-7.534,3.373-7.534,7.534V84.9
	c0,15.888,0,117.759,0,131.177c0,3.651,2.656,6.307,5.778,6.87l0.021-0.094c5.334,1.004,4.797-1.761,45.742-30.146
	c3.62-2.596,8.491-2.596,12.112,0c40.987,28.414,40.399,31.151,45.742,30.146l0.021,0.094c3.122-0.563,5.778-3.219,5.778-6.87
	c0-13.418,0-115.093,0-131.177v-0.102C166.541,80.637,163.168,77.264,159.007,77.264z"/>
<path style="fill:#52A5D8;" d="M256.001,84.905c0-4.22,3.421-7.641,7.641-7.641h-57.596c-4.22,0-7.641,3.421-7.641,7.641v131.172
	c0,5.684,6.429,8.985,11.049,5.672c41.482-28.936,40.645-30.989,46.548-30.989V84.905L256.001,84.905z"/>
<path style="fill:#F2A306;" d="M403.058,84.742c0-4.13,3.348-7.478,7.478-7.478h-57.597c-4.13,0-7.478,3.348-7.478,7.478v131.335
	c0,5.684,6.429,8.985,11.049,5.672c41.605-29.022,40.664-30.989,46.548-30.989L403.058,84.742L403.058,84.742z"/>
<path style="fill:#EF3C3C;" d="M108.945,84.9v-0.102c0-4.161,3.373-7.534,7.534-7.534H58.985h-0.102
	c-4.161,0-7.534,3.373-7.534,7.534V84.9c0,15.888,0,117.759,0,131.177c0,3.651,2.656,6.307,5.778,6.87l0.021-0.094
	c1.775,0.334,3.701,0.006,5.391-1.205c41.351-28.842,40.504-30.888,46.407-30.888L108.945,84.9L108.945,84.9z"/>
<path style="fill:#EFEFEF;" d="M111.218,105.158l7.993,16.196c0.369,0.748,1.083,1.267,1.909,1.386l17.873,2.597
	c2.079,0.302,2.909,2.857,1.405,4.324l-12.933,12.607c-0.597,0.582-0.87,1.421-0.729,2.243l3.053,17.801
	c0.355,2.071-1.818,3.65-3.678,2.672c-17.495-9.198-16.734-9.252-18.345-8.404l-15.986,8.404c-1.859,0.978-4.033-0.601-3.678-2.672
	c3.337-19.46,3.613-18.788,2.324-20.044l-12.933-12.607c-1.504-1.467-0.674-4.021,1.405-4.324l17.873-2.597
	c0.826-0.12,1.539-0.638,1.909-1.386l7.993-16.196C107.602,103.274,110.288,103.274,111.218,105.158z"/>
<path style="fill:#DDDDDD;" d="M108.354,139.53c0.141-0.822-0.132-1.661-0.729-2.244L94.692,124.68
	c-0.454-0.442-0.672-0.984-0.731-1.532l-15.063,2.189c-2.079,0.302-2.909,2.857-1.405,4.323l12.933,12.607
	c1.684,1.64,0.325,2.399-2.324,20.044c-0.355,2.071,1.818,3.649,3.678,2.672l13.492-7.092
	C105.244,157.297,105.157,158.329,108.354,139.53z"/>
<path style="fill:#9FD3F4;" d="M276.045,77.264h-40.087V202.74l13.988-10.033c3.62-2.596,8.492-2.596,12.112,0l13.989,10.033V77.264
	H276.045z"/>
<path style="fill:#7AC8EA;" d="M256.001,190.76V84.905c0-4.22,3.421-7.641,7.641-7.641h-27.686V202.74
	C249.849,192.968,251.273,190.76,256.001,190.76z"/>
<path style="fill:#FFB70D;" d="M59.293,213.176L31.004,340.76c-1.23,5.549,4.332,10.164,9.559,7.929l45.82-19.588
	c4.096-1.751,8.853-0.696,11.824,2.622l33.13,36.989c3.84,4.288,10.922,2.434,12.168-3.186l28.637-129.153
	c0.759-3.424-1.401-6.815-4.825-7.575l-98.324-21.801C64.607,206.025,60.265,208.791,59.293,213.176z"/>
<path style="fill:#F2A306;" d="M92.534,328.478c25.687-115.307,23.845-108.828,24.869-110.746L68.99,206.997
	c-4.384-0.972-8.726,1.794-9.698,6.177L31.004,340.76c-1.23,5.549,4.332,10.164,9.559,7.929
	C87.318,329.386,86.901,327.333,92.534,328.478z"/>
<path style="fill:#F94A46;" d="M203.032,244.241l-28.459,128.352c-1.23,5.549,4.332,10.164,9.559,7.929l45.819-19.588
	c4.096-1.751,8.853-0.696,11.825,2.622l33.13,36.989c3.84,4.288,10.922,2.434,12.168-3.186l28.352-127.866
	c0.917-4.135-1.692-8.23-5.827-9.148l-97.804-21.686C207.833,237.783,203.911,240.281,203.032,244.241z"/>
<path style="fill:#EF3C3C;" d="M235.948,360.283l24.571-110.818l-48.726-10.804c-3.96-0.878-7.882,1.62-8.761,5.581l-28.459,128.352
	c-1.23,5.549,4.332,10.164,9.559,7.929C231.042,361.125,230.438,359.25,235.948,360.283z"/>
<path style="fill:#70B5E8;" d="M346.441,276.802l-28.298,127.623c-1.23,5.549,4.332,10.164,9.559,7.929l45.819-19.588
	c4.096-1.751,8.853-0.696,11.824,2.622l33.13,36.989c3.84,4.288,10.922,2.434,12.168-3.186l28.456-128.337
	c0.859-3.875-1.585-7.712-5.46-8.572l-97.548-21.629C351.729,269.688,347.409,272.44,346.441,276.802z"/>
<path style="fill:#52A5D8;" d="M379.35,392.086l24.094-108.664c0.166-0.75,0.438-1.449,0.786-2.093l-48.14-10.674
	c-4.362-0.967-8.683,1.785-9.65,6.146l-28.298,127.624c-1.23,5.549,4.332,10.164,9.559,7.929
	C374.812,392.84,373.982,391.17,379.35,392.086z"/>
<path style="fill:#EFEFEF;" d="M256.088,279.377l4.241,17.555c0.196,0.811,0.778,1.473,1.557,1.772l16.866,6.458
	c1.962,0.751,2.211,3.426,0.421,4.526l-15.385,9.459c-0.711,0.437-1.161,1.195-1.204,2.029l-0.93,18.036
	c-0.108,2.098-2.575,3.161-4.175,1.799c-15.049-12.814-14.295-12.7-16.052-12.228l-17.441,4.689
	c-2.029,0.545-3.802-1.472-3.001-3.414c7.536-18.272,7.661-17.519,6.668-19.045l-9.85-15.139c-1.146-1.761,0.225-4.071,2.32-3.91
	c19.685,1.52,19.042,1.857,20.173,0.457l11.354-14.045C252.974,276.745,255.595,277.335,256.088,279.377z"/>
<path style="fill:#DDDDDD;" d="M246.125,312.364c0.897-2.175-0.651-2.332-10.068-17.488c-0.356-0.547-0.468-1.146-0.392-1.709
	l-15.539-1.2c-2.095-0.162-3.465,2.148-2.32,3.909c9.375,15.088,10.965,15.312,10.068,17.488l-6.887,16.696
	c-0.801,1.942,0.973,3.959,3.001,3.414l15.135-4.068C239.197,329.119,240.427,326.196,246.125,312.364z"/>
<path style="fill:#9FD3F4;" d="M424.21,285.759l-39.137-8.677l-27.58,122.539l16.029-6.852c4.096-1.751,8.853-0.696,11.824,2.621
	l11.34,12.662L424.21,285.759z"/>
<path style="fill:#7AC8EA;" d="M403.445,283.423c0.166-0.75,0.438-1.449,0.786-2.093l-12.712-2.818l-6.446-1.429l-27.58,122.539
	c15.892-6.753,17.641-8.257,21.858-7.534L403.445,283.423z"/>
<path style="fill:#F9D07D;" d="M137.148,222.11l-39.137-8.679L70.442,335.916l15.939-6.814c4.096-1.751,8.853-0.696,11.825,2.622
	l11.406,12.734L137.148,222.11z"/>
<path style="fill:#EDBE6B;" d="M117.403,217.732l-19.393-4.3L70.442,335.915c17.303-7.435,18.167-8.234,22.091-7.437
	C118.22,213.172,116.379,219.65,117.403,217.732z"/>
<path style="fill:#EFEFEF;" d="M405.331,105.158c8.747,17.724,8.139,17.326,9.902,17.582l17.873,2.597
	c2.079,0.302,2.909,2.857,1.405,4.324c-14.153,13.797-13.97,13.057-13.662,14.85l3.053,17.801c0.355,2.071-1.818,3.65-3.678,2.672
	c-17.495-9.198-16.734-9.252-18.345-8.404l-15.986,8.404c-1.859,0.978-4.033-0.601-3.678-2.672
	c3.337-19.46,3.613-18.788,2.324-20.044l-12.933-12.607c-1.504-1.467-0.674-4.021,1.405-4.324l17.873-2.597
	c0.826-0.12,1.539-0.638,1.909-1.386l7.992-16.196C401.715,103.274,404.401,103.274,405.331,105.158z"/>
<path style="fill:#DDDDDD;" d="M402.467,139.53c0.141-0.822-0.132-1.661-0.729-2.244l-12.933-12.606
	c-0.454-0.442-0.672-0.984-0.731-1.532l-15.063,2.189c-2.079,0.302-2.909,2.857-1.405,4.323
	c12.453,12.656,14.06,12.532,13.662,14.851l-3.053,17.8c-0.355,2.071,1.818,3.649,3.678,2.672l13.492-7.092
	C399.357,157.297,399.271,158.329,402.467,139.53z"/>
<g>
</g>
<g>
</g>
<g>
</g>
<g>
</g>
<g>
</g>
<g>
</g>
<g>
</g>
<g>
</g>
<g>
</g>
<g>
</g>
<g>
</g>
<g>
</g>
<g>
</g>
<g>
</g>
<g>
</g>
</svg>
