<?xml version="1.0" encoding="iso-8859-1"?>
<!-- Generator: Adobe Illustrator 19.0.0, SVG Export Plug-In . SVG Version: 6.00 Build 0)  -->
<svg version="1.1" id="Capa_1" xmlns="http://www.w3.org/2000/svg" xmlns:xlink="http://www.w3.org/1999/xlink" x="0px" y="0px"
	 viewBox="0 0 512 512" style="enable-background:new 0 0 512 512;" xml:space="preserve">
<path style="fill:#87D2F3;" d="M448,96h-64c-11.767-0.035-21.298-9.566-21.333-21.333v-64L448,96z"/>
<path style="fill:#FFFFFF;" d="M448,96v384c-0.035,11.768-9.566,21.298-21.333,21.333H85.333C73.566,501.298,64.035,491.768,64,480
	V32c0.035-11.767,9.566-21.298,21.333-21.333h277.333v64C362.702,86.434,372.233,95.965,384,96H448z"/>
<path style="fill:#87D2F3;" d="M138.667,170.667h234.667c5.891,0,10.667,4.776,10.667,10.667v128
	c0,5.891-4.776,10.667-10.667,10.667H138.667c-5.891,0-10.667-4.776-10.667-10.667v-128
	C128,175.442,132.776,170.667,138.667,170.667z"/>
<g>
	<path style="fill:#2170A6;" d="M117.333,64H224v21.333H117.333V64z"/>
	<path style="fill:#2170A6;" d="M117.333,106.667h21.333V128h-21.333V106.667z"/>
	<path style="fill:#2170A6;" d="M160,106.667h21.333V128H160V106.667z"/>
	<path style="fill:#2170A6;" d="M455.541,88.459L370.208,3.125c-2-2.001-4.713-3.125-7.541-3.125H85.333c-17.673,0-32,14.327-32,32
		l0,0v448c0,17.673,14.327,32,32,32h341.333c17.673,0,32-14.327,32-32V96C458.666,93.171,457.542,90.459,455.541,88.459z
		 M437.333,480c0,5.891-4.776,10.667-10.667,10.667H85.333c-5.891,0-10.667-4.776-10.667-10.667V32
		c0-5.891,4.776-10.667,10.667-10.667H352v53.333c0,17.673,14.327,32,32,32h21.333V85.333H384c-5.891,0-10.667-4.776-10.667-10.667
		V36.416l64,64V480z"/>
	<path style="fill:#2170A6;" d="M373.333,362.667h21.333V384h-21.333V362.667z"/>
	<path style="fill:#2170A6;" d="M330.667,362.667H352V384h-21.333V362.667z"/>
	<path style="fill:#2170A6;" d="M117.333,362.667H288V384H117.333V362.667z"/>
	<path style="fill:#2170A6;" d="M117.333,416h277.333v21.333H117.333V416z"/>
	<path style="fill:#2170A6;" d="M373.333,160H138.667c-11.782,0-21.333,9.551-21.333,21.333v128
		c0,11.782,9.551,21.333,21.333,21.333h234.667c11.782,0,21.333-9.551,21.333-21.333v-128C394.667,169.551,385.115,160,373.333,160z
		 M373.333,309.333H138.667v-128h234.667V309.333z"/>
</g>
<g>
</g>
<g>
</g>
<g>
</g>
<g>
</g>
<g>
</g>
<g>
</g>
<g>
</g>
<g>
</g>
<g>
</g>
<g>
</g>
<g>
</g>
<g>
</g>
<g>
</g>
<g>
</g>
<g>
</g>
</svg>
