<?xml version="1.0" encoding="iso-8859-1"?>
<!-- Generator: Adobe Illustrator 19.0.0, SVG Export Plug-In . SVG Version: 6.00 Build 0)  -->
<svg version="1.1" id="Capa_1" xmlns="http://www.w3.org/2000/svg" xmlns:xlink="http://www.w3.org/1999/xlink" x="0px" y="0px"
	 viewBox="0 0 512 512" style="enable-background:new 0 0 512 512;" xml:space="preserve">
<path style="fill:#FD4E26;" d="M384,128c-42.3-42.301-99-65.7-159-65.7c-60.3,0-116.7,23.399-159.3,65.7
	C21.899,171.799,0,229.399,0,287c0,57.599,21.899,115.199,65.7,159.3C109.799,490.099,167.4,512,225,512s115.201-21.901,159-65.7
	c42.301-42.599,65.7-99,65.7-159.3C449.7,227,426.301,170.3,384,128z"/>
<path style="fill:#FD3018;" d="M449.7,287c0,60.3-23.399,116.7-65.7,159.3C340.201,490.099,282.6,512,225,512V62.3
	c60,0,116.7,23.399,159,65.7C426.301,170.3,449.7,227,449.7,287z"/>
<path style="fill:#E1E4FB;" d="M341.7,170.3C309.6,138.2,267,122,225,122c-42.299,0-84.6,16.199-116.7,48.3
	C77.1,201.499,60,242.899,60,287c0,44.099,17.1,85.499,48.3,116.7C139.501,434.9,180.901,452,225,452s85.499-17.1,116.7-48.3
	C405.901,339.5,405.901,234.8,341.7,170.3z"/>
<path style="fill:#C5C9F7;" d="M341.7,403.7C310.499,434.9,269.099,452,225,452V122c42.001,0,84.6,16.199,116.7,48.3
	C405.901,234.8,405.901,339.5,341.7,403.7z"/>
<path style="fill:#FD4E26;" d="M299.099,212.899C278.699,192.199,252.001,182,225,182s-54,10.199-74.399,30.899
	c-40.801,40.801-40.801,107.401,0,148.5C171,381.799,197.999,392,225,392c26.7,0,53.699-10.201,74.099-30.601
	C340.201,320.3,340.201,253.7,299.099,212.899z"/>
<path style="fill:#FD3018;" d="M299.099,361.399C278.699,381.799,251.7,392,225,392V182c27.001,0,53.699,10.199,74.099,30.899
	C340.201,253.7,340.201,320.3,299.099,361.399z"/>
<path style="fill:#E1E4FB;" d="M256.8,255.2c-8.399-8.401-20.4-12.601-31.8-12.601c-11.7,0-23.401,4.2-31.8,12.601
	c-9,9-13.2,20.4-13.2,31.8c0,11.7,4.2,23.099,13.2,31.8c8.699,9,20.099,13.2,31.8,13.2c11.4,0,23.101-4.2,31.8-13.2
	c8.401-8.401,13.2-19.801,13.2-31.8C270,274.999,265.201,263.899,256.8,255.2z"/>
<path style="fill:#C5C9F7;" d="M270,287c0,11.999-4.799,23.399-13.2,31.8c-8.699,9-20.4,13.2-31.8,13.2v-89.401
	c11.4,0,23.401,4.2,31.8,12.601C265.201,263.899,270,274.999,270,287z"/>
<path style="fill:#A8AFF1;" d="M236.518,275.497c-5.859-5.859-5.859-15.352,0-21.211L377.89,112.914
	c5.859-5.859,15.352-5.859,21.211,0s5.859,15.352,0,21.211L257.729,275.497C251.869,281.357,242.377,281.357,236.518,275.497z"/>
<path style="fill:#713708;" d="M433.342,136H390.92c-8.291,0-14.92-6.629-14.92-14.92V78.643c0-3.984,1.502-7.793,4.315-10.605
	l63.633-63.633C453.356-5.004,469,1.65,469,15.011V43h27.989c13.361,0,20.014,15.629,10.605,25.038l-63.647,63.647
	C441.135,134.498,437.326,136,433.342,136z"/>
<g>
</g>
<g>
</g>
<g>
</g>
<g>
</g>
<g>
</g>
<g>
</g>
<g>
</g>
<g>
</g>
<g>
</g>
<g>
</g>
<g>
</g>
<g>
</g>
<g>
</g>
<g>
</g>
<g>
</g>
</svg>
