<?xml version="1.0" encoding="iso-8859-1"?>
<!-- Generator: Adobe Illustrator 19.0.0, SVG Export Plug-In . SVG Version: 6.00 Build 0)  -->
<svg version="1.1" id="Capa_1" xmlns="http://www.w3.org/2000/svg" xmlns:xlink="http://www.w3.org/1999/xlink" x="0px" y="0px"
	 viewBox="0 0 512 512" style="enable-background:new 0 0 512 512;" xml:space="preserve">
<circle style="fill:#FFECB3;" cx="256" cy="256" r="256"/>
<path style="fill:#FFD863;" d="M512,256c0-6.07-0.227-12.087-0.642-18.052L371,97.591L107.359,395.042l114.716,114.716
	C233.176,511.229,244.497,512,256,512C397.385,512,512,397.385,512,256z"/>
<rect x="107.36" y="210.22" style="fill:#0074A3;" width="297.28" height="184.82"/>
<rect x="255.95" y="210.22" style="fill:#005C83;" width="148.69" height="184.82"/>
<polygon style="fill:#008CC3;" points="404.641,395.042 256,259.042 107.359,395.042 "/>
<polygon style="fill:#0074A3;" points="256,259.042 255.952,259.086 255.952,395.042 404.641,395.042 "/>
<polygon style="fill:#005C83;" points="107.359,210.222 256,346.222 404.641,210.222 "/>
<polygon style="fill:#00263F;" points="404.641,210.222 255.952,210.222 255.952,346.178 256,346.222 "/>
<polygon style="fill:#0074A3;" points="404.641,210.221 256,74.221 107.359,210.222 "/>
<polygon style="fill:#005C83;" points="256,74.221 256,74.221 255.952,210.221 404.641,210.221 "/>
<polygon style="fill:#FFFFFF;" points="141,97.59 141,210.222 141,241.002 256,346.222 371,241.002 371,210.222 371,97.59 "/>
<g>
	<polygon style="fill:#E0E0E0;" points="255.952,97.591 255.952,346.178 256,346.222 371,241.002 371,210.222 371,97.591 	"/>
	<rect x="172.33" y="132.22" style="fill:#E0E0E0;" width="167.33" height="20"/>
</g>
<rect x="255.95" y="132.22" style="fill:#C0C0C0;" width="83.72" height="20"/>
<rect x="172.33" y="176.94" style="fill:#E0E0E0;" width="167.33" height="20"/>
<rect x="255.95" y="176.94" style="fill:#C0C0C0;" width="83.72" height="20"/>
<rect x="172.33" y="221.67" style="fill:#E0E0E0;" width="167.33" height="20"/>
<rect x="255.95" y="221.67" style="fill:#C0C0C0;" width="83.72" height="20"/>
<g>
</g>
<g>
</g>
<g>
</g>
<g>
</g>
<g>
</g>
<g>
</g>
<g>
</g>
<g>
</g>
<g>
</g>
<g>
</g>
<g>
</g>
<g>
</g>
<g>
</g>
<g>
</g>
<g>
</g>
</svg>
